<?xml version="1.0" encoding="UTF-8" standalone="no"?>
<!DOCTYPE svg PUBLIC "-//W3C//DTD SVG 1.1//EN"
 "http://www.w3.org/Graphics/SVG/1.1/DTD/svg11.dtd">
<!-- Generated by graphviz version 2.49.3 (20211023.0002)
 -->
<!-- Title: Tree Pages: 1 -->
<svg width="2002pt" height="474pt"
 viewBox="0.00 0.00 2002.00 474.00" xmlns="http://www.w3.org/2000/svg" xmlns:xlink="http://www.w3.org/1999/xlink">
<g id="graph0" class="graph" transform="scale(1 1) rotate(0) translate(4 470)">
<title>Tree</title>
<polygon fill="white" stroke="transparent" points="-4,4 -4,-470 1998,-470 1998,4 -4,4"/>
<!-- 0 -->
<g id="node1" class="node">
<title>0</title>
<path fill="#fdfefb" stroke="black" d="M1212,-466C1212,-466 1100,-466 1100,-466 1094,-466 1088,-460 1088,-454 1088,-454 1088,-428 1088,-428 1088,-422 1094,-416 1100,-416 1100,-416 1212,-416 1212,-416 1218,-416 1224,-422 1224,-428 1224,-428 1224,-454 1224,-454 1224,-460 1218,-466 1212,-466"/>
<text text-anchor="start" x="1129.5" y="-451.8" font-family="arial" font-size="14.00">X</text>
<text text-anchor="start" x="1139.5" y="-451.8" font-family="arial" baseline-shift="sub" font-size="14.00">4</text>
<text text-anchor="start" x="1146.5" y="-451.8" font-family="arial" font-size="14.00"> ≤ 1.5</text>
<text text-anchor="start" x="1118.5" y="-437.8" font-family="arial" font-size="14.00">gini = 0.866</text>
<text text-anchor="start" x="1096" y="-423.8" font-family="arial" font-size="14.00">samples = 100.0%</text>
</g>
<!-- 1 -->
<g id="node2" class="node">
<title>1</title>
<path fill="#f3fbe1" stroke="black" d="M934,-380C934,-380 830,-380 830,-380 824,-380 818,-374 818,-368 818,-368 818,-342 818,-342 818,-336 824,-330 830,-330 830,-330 934,-330 934,-330 940,-330 946,-336 946,-342 946,-342 946,-368 946,-368 946,-374 940,-380 934,-380"/>
<text text-anchor="start" x="855.5" y="-365.8" font-family="arial" font-size="14.00">X</text>
<text text-anchor="start" x="865.5" y="-365.8" font-family="arial" baseline-shift="sub" font-size="14.00">4</text>
<text text-anchor="start" x="872.5" y="-365.8" font-family="arial" font-size="14.00"> ≤ 0.5</text>
<text text-anchor="start" x="844.5" y="-351.8" font-family="arial" font-size="14.00">gini = 0.857</text>
<text text-anchor="start" x="826" y="-337.8" font-family="arial" font-size="14.00">samples = 66.7%</text>
</g>
<!-- 0&#45;&gt;1 -->
<g id="edge1" class="edge">
<title>0&#45;&gt;1</title>
<path fill="none" stroke="black" d="M1087.92,-419.13C1047.86,-406.85 997.17,-391.31 956.11,-378.72"/>
<polygon fill="black" stroke="black" points="957.02,-375.34 946.43,-375.75 954.97,-382.03 957.02,-375.34"/>
<text text-anchor="middle" x="958.15" y="-394.14" font-family="arial" font-size="14.00">True</text>
</g>
<!-- 5836 -->
<g id="node33" class="node">
<title>5836</title>
<path fill="#f7f0c3" stroke="black" d="M1484,-380C1484,-380 1380,-380 1380,-380 1374,-380 1368,-374 1368,-368 1368,-368 1368,-342 1368,-342 1368,-336 1374,-330 1380,-330 1380,-330 1484,-330 1484,-330 1490,-330 1496,-336 1496,-342 1496,-342 1496,-368 1496,-368 1496,-374 1490,-380 1484,-380"/>
<text text-anchor="start" x="1405.5" y="-365.8" font-family="arial" font-size="14.00">X</text>
<text text-anchor="start" x="1415.5" y="-365.8" font-family="arial" baseline-shift="sub" font-size="14.00">0</text>
<text text-anchor="start" x="1422.5" y="-365.8" font-family="arial" font-size="14.00"> ≤ 1.5</text>
<text text-anchor="start" x="1394.5" y="-351.8" font-family="arial" font-size="14.00">gini = 0.799</text>
<text text-anchor="start" x="1376" y="-337.8" font-family="arial" font-size="14.00">samples = 33.3%</text>
</g>
<!-- 0&#45;&gt;5836 -->
<g id="edge32" class="edge">
<title>0&#45;&gt;5836</title>
<path fill="none" stroke="black" d="M1224.22,-419.24C1264.87,-406.87 1316.46,-391.16 1358.07,-378.5"/>
<polygon fill="black" stroke="black" points="1359.33,-381.78 1367.88,-375.52 1357.29,-375.08 1359.33,-381.78"/>
<text text-anchor="middle" x="1356.11" y="-393.88" font-family="arial" font-size="14.00">False</text>
</g>
<!-- 2 -->
<g id="node3" class="node">
<title>2</title>
<path fill="#e9e7fc" stroke="black" d="M509,-294C509,-294 405,-294 405,-294 399,-294 393,-288 393,-282 393,-282 393,-256 393,-256 393,-250 399,-244 405,-244 405,-244 509,-244 509,-244 515,-244 521,-250 521,-256 521,-256 521,-282 521,-282 521,-288 515,-294 509,-294"/>
<text text-anchor="start" x="430.5" y="-279.8" font-family="arial" font-size="14.00">X</text>
<text text-anchor="start" x="440.5" y="-279.8" font-family="arial" baseline-shift="sub" font-size="14.00">8</text>
<text text-anchor="start" x="447.5" y="-279.8" font-family="arial" font-size="14.00"> ≤ 1.5</text>
<text text-anchor="start" x="423.5" y="-265.8" font-family="arial" font-size="14.00">gini = 0.86</text>
<text text-anchor="start" x="401" y="-251.8" font-family="arial" font-size="14.00">samples = 33.3%</text>
</g>
<!-- 1&#45;&gt;2 -->
<g id="edge2" class="edge">
<title>1&#45;&gt;2</title>
<path fill="none" stroke="black" d="M817.91,-341.33C741.08,-326.15 612.55,-300.74 531.4,-284.71"/>
<polygon fill="black" stroke="black" points="531.75,-281.21 521.26,-282.7 530.39,-288.07 531.75,-281.21"/>
</g>
<!-- 3059 -->
<g id="node18" class="node">
<title>3059</title>
<path fill="#e4f7bf" stroke="black" d="M934,-294C934,-294 830,-294 830,-294 824,-294 818,-288 818,-282 818,-282 818,-256 818,-256 818,-250 824,-244 830,-244 830,-244 934,-244 934,-244 940,-244 946,-250 946,-256 946,-256 946,-282 946,-282 946,-288 940,-294 934,-294"/>
<text text-anchor="start" x="855.5" y="-279.8" font-family="arial" font-size="14.00">X</text>
<text text-anchor="start" x="865.5" y="-279.8" font-family="arial" baseline-shift="sub" font-size="14.00">8</text>
<text text-anchor="start" x="872.5" y="-279.8" font-family="arial" font-size="14.00"> ≤ 1.5</text>
<text text-anchor="start" x="848.5" y="-265.8" font-family="arial" font-size="14.00">gini = 0.78</text>
<text text-anchor="start" x="826" y="-251.8" font-family="arial" font-size="14.00">samples = 33.3%</text>
</g>
<!-- 1&#45;&gt;3059 -->
<g id="edge17" class="edge">
<title>1&#45;&gt;3059</title>
<path fill="none" stroke="black" d="M882,-329.7C882,-321.78 882,-312.83 882,-304.31"/>
<polygon fill="black" stroke="black" points="885.5,-304.24 882,-294.24 878.5,-304.24 885.5,-304.24"/>
</g>
<!-- 3 -->
<g id="node4" class="node">
<title>3</title>
<path fill="#f0effd" stroke="black" d="M296,-208C296,-208 192,-208 192,-208 186,-208 180,-202 180,-196 180,-196 180,-170 180,-170 180,-164 186,-158 192,-158 192,-158 296,-158 296,-158 302,-158 308,-164 308,-170 308,-170 308,-196 308,-196 308,-202 302,-208 296,-208"/>
<text text-anchor="start" x="217.5" y="-193.8" font-family="arial" font-size="14.00">X</text>
<text text-anchor="start" x="227.5" y="-193.8" font-family="arial" baseline-shift="sub" font-size="14.00">8</text>
<text text-anchor="start" x="234.5" y="-193.8" font-family="arial" font-size="14.00"> ≤ 0.5</text>
<text text-anchor="start" x="206.5" y="-179.8" font-family="arial" font-size="14.00">gini = 0.842</text>
<text text-anchor="start" x="188" y="-165.8" font-family="arial" font-size="14.00">samples = 22.2%</text>
</g>
<!-- 2&#45;&gt;3 -->
<g id="edge3" class="edge">
<title>2&#45;&gt;3</title>
<path fill="none" stroke="black" d="M395.96,-243.93C370.56,-233.91 340.91,-222.22 314.58,-211.84"/>
<polygon fill="black" stroke="black" points="315.63,-208.49 305.05,-208.07 313.06,-215 315.63,-208.49"/>
</g>
<!-- 2366 -->
<g id="node11" class="node">
<title>2366</title>
<path fill="#fefeff" stroke="black" d="M509,-208C509,-208 405,-208 405,-208 399,-208 393,-202 393,-196 393,-196 393,-170 393,-170 393,-164 399,-158 405,-158 405,-158 509,-158 509,-158 515,-158 521,-164 521,-170 521,-170 521,-196 521,-196 521,-202 515,-208 509,-208"/>
<text text-anchor="start" x="430.5" y="-193.8" font-family="arial" font-size="14.00">X</text>
<text text-anchor="start" x="440.5" y="-193.8" font-family="arial" baseline-shift="sub" font-size="14.00">6</text>
<text text-anchor="start" x="447.5" y="-193.8" font-family="arial" font-size="14.00"> ≤ 1.5</text>
<text text-anchor="start" x="419.5" y="-179.8" font-family="arial" font-size="14.00">gini = 0.838</text>
<text text-anchor="start" x="401" y="-165.8" font-family="arial" font-size="14.00">samples = 11.1%</text>
</g>
<!-- 2&#45;&gt;2366 -->
<g id="edge10" class="edge">
<title>2&#45;&gt;2366</title>
<path fill="none" stroke="black" d="M457,-243.7C457,-235.78 457,-226.83 457,-218.31"/>
<polygon fill="black" stroke="black" points="460.5,-218.24 457,-208.24 453.5,-218.24 460.5,-218.24"/>
</g>
<!-- 4 -->
<g id="node5" class="node">
<title>4</title>
<path fill="#fffefe" stroke="black" d="M150,-122C150,-122 46,-122 46,-122 40,-122 34,-116 34,-110 34,-110 34,-84 34,-84 34,-78 40,-72 46,-72 46,-72 150,-72 150,-72 156,-72 162,-78 162,-84 162,-84 162,-110 162,-110 162,-116 156,-122 150,-122"/>
<text text-anchor="start" x="71.5" y="-107.8" font-family="arial" font-size="14.00">X</text>
<text text-anchor="start" x="81.5" y="-107.8" font-family="arial" baseline-shift="sub" font-size="14.00">6</text>
<text text-anchor="start" x="88.5" y="-107.8" font-family="arial" font-size="14.00"> ≤ 1.5</text>
<text text-anchor="start" x="60.5" y="-93.8" font-family="arial" font-size="14.00">gini = 0.832</text>
<text text-anchor="start" x="42" y="-79.8" font-family="arial" font-size="14.00">samples = 11.1%</text>
</g>
<!-- 3&#45;&gt;4 -->
<g id="edge4" class="edge">
<title>3&#45;&gt;4</title>
<path fill="none" stroke="black" d="M202.16,-157.93C185.52,-148.35 166.21,-137.24 148.77,-127.21"/>
<polygon fill="black" stroke="black" points="150.26,-124.03 139.84,-122.07 146.77,-130.1 150.26,-124.03"/>
</g>
<!-- 1305 -->
<g id="node8" class="node">
<title>1305</title>
<path fill="#f9f8fe" stroke="black" d="M296,-122C296,-122 192,-122 192,-122 186,-122 180,-116 180,-110 180,-110 180,-84 180,-84 180,-78 186,-72 192,-72 192,-72 296,-72 296,-72 302,-72 308,-78 308,-84 308,-84 308,-110 308,-110 308,-116 302,-122 296,-122"/>
<text text-anchor="start" x="217.5" y="-107.8" font-family="arial" font-size="14.00">X</text>
<text text-anchor="start" x="227.5" y="-107.8" font-family="arial" baseline-shift="sub" font-size="14.00">0</text>
<text text-anchor="start" x="234.5" y="-107.8" font-family="arial" font-size="14.00"> ≤ 1.5</text>
<text text-anchor="start" x="206.5" y="-93.8" font-family="arial" font-size="14.00">gini = 0.804</text>
<text text-anchor="start" x="188" y="-79.8" font-family="arial" font-size="14.00">samples = 11.1%</text>
</g>
<!-- 3&#45;&gt;1305 -->
<g id="edge7" class="edge">
<title>3&#45;&gt;1305</title>
<path fill="none" stroke="black" d="M244,-157.7C244,-149.78 244,-140.83 244,-132.31"/>
<polygon fill="black" stroke="black" points="247.5,-132.24 244,-122.24 240.5,-132.24 247.5,-132.24"/>
</g>
<!-- 5 -->
<g id="node6" class="node">
<title>5</title>
<path fill="#c0c0c0" stroke="black" d="M42,-36C42,-36 12,-36 12,-36 6,-36 0,-30 0,-24 0,-24 0,-12 0,-12 0,-6 6,0 12,0 12,0 42,0 42,0 48,0 54,-6 54,-12 54,-12 54,-24 54,-24 54,-30 48,-36 42,-36"/>
<text text-anchor="middle" x="27" y="-14.3" font-family="arial" font-size="14.00">(...)</text>
</g>
<!-- 4&#45;&gt;5 -->
<g id="edge5" class="edge">
<title>4&#45;&gt;5</title>
<path fill="none" stroke="black" d="M75.54,-71.64C67.37,-62.78 58.13,-52.76 49.92,-43.85"/>
<polygon fill="black" stroke="black" points="52.37,-41.36 43.02,-36.38 47.23,-46.1 52.37,-41.36"/>
</g>
<!-- 1026 -->
<g id="node7" class="node">
<title>1026</title>
<path fill="#c0c0c0" stroke="black" d="M114,-36C114,-36 84,-36 84,-36 78,-36 72,-30 72,-24 72,-24 72,-12 72,-12 72,-6 78,0 84,0 84,0 114,0 114,0 120,0 126,-6 126,-12 126,-12 126,-24 126,-24 126,-30 120,-36 114,-36"/>
<text text-anchor="middle" x="99" y="-14.3" font-family="arial" font-size="14.00">(...)</text>
</g>
<!-- 4&#45;&gt;1026 -->
<g id="edge6" class="edge">
<title>4&#45;&gt;1026</title>
<path fill="none" stroke="black" d="M98.32,-71.64C98.42,-63.67 98.54,-54.77 98.64,-46.58"/>
<polygon fill="black" stroke="black" points="102.14,-46.42 98.77,-36.38 95.14,-46.33 102.14,-46.42"/>
</g>
<!-- 1306 -->
<g id="node9" class="node">
<title>1306</title>
<path fill="#c0c0c0" stroke="black" d="M203,-36C203,-36 173,-36 173,-36 167,-36 161,-30 161,-24 161,-24 161,-12 161,-12 161,-6 167,0 173,0 173,0 203,0 203,0 209,0 215,-6 215,-12 215,-12 215,-24 215,-24 215,-30 209,-36 203,-36"/>
<text text-anchor="middle" x="188" y="-14.3" font-family="arial" font-size="14.00">(...)</text>
</g>
<!-- 1305&#45;&gt;1306 -->
<g id="edge8" class="edge">
<title>1305&#45;&gt;1306</title>
<path fill="none" stroke="black" d="M226.28,-71.64C220.03,-63.05 212.99,-53.36 206.67,-44.67"/>
<polygon fill="black" stroke="black" points="209.35,-42.41 200.64,-36.38 203.69,-46.52 209.35,-42.41"/>
</g>
<!-- 2023 -->
<g id="node10" class="node">
<title>2023</title>
<path fill="#c0c0c0" stroke="black" d="M275,-36C275,-36 245,-36 245,-36 239,-36 233,-30 233,-24 233,-24 233,-12 233,-12 233,-6 239,0 245,0 245,0 275,0 275,0 281,0 287,-6 287,-12 287,-12 287,-24 287,-24 287,-30 281,-36 275,-36"/>
<text text-anchor="middle" x="260" y="-14.3" font-family="arial" font-size="14.00">(...)</text>
</g>
<!-- 1305&#45;&gt;2023 -->
<g id="edge9" class="edge">
<title>1305&#45;&gt;2023</title>
<path fill="none" stroke="black" d="M249.06,-71.64C250.74,-63.58 252.61,-54.57 254.33,-46.31"/>
<polygon fill="black" stroke="black" points="257.78,-46.88 256.39,-36.38 250.93,-45.46 257.78,-46.88"/>
</g>
<!-- 2367 -->
<g id="node12" class="node">
<title>2367</title>
<path fill="#e6e4fb" stroke="black" d="M433.5,-122C433.5,-122 338.5,-122 338.5,-122 332.5,-122 326.5,-116 326.5,-110 326.5,-110 326.5,-84 326.5,-84 326.5,-78 332.5,-72 338.5,-72 338.5,-72 433.5,-72 433.5,-72 439.5,-72 445.5,-78 445.5,-84 445.5,-84 445.5,-110 445.5,-110 445.5,-116 439.5,-122 433.5,-122"/>
<text text-anchor="start" x="359.5" y="-107.8" font-family="arial" font-size="14.00">X</text>
<text text-anchor="start" x="369.5" y="-107.8" font-family="arial" baseline-shift="sub" font-size="14.00">2</text>
<text text-anchor="start" x="376.5" y="-107.8" font-family="arial" font-size="14.00"> ≤ 1.5</text>
<text text-anchor="start" x="348.5" y="-93.8" font-family="arial" font-size="14.00">gini = 0.825</text>
<text text-anchor="start" x="334.5" y="-79.8" font-family="arial" font-size="14.00">samples = 7.4%</text>
</g>
<!-- 2366&#45;&gt;2367 -->
<g id="edge11" class="edge">
<title>2366&#45;&gt;2367</title>
<path fill="none" stroke="black" d="M436.46,-157.7C429.18,-149.08 420.86,-139.25 413.11,-130.08"/>
<polygon fill="black" stroke="black" points="415.62,-127.62 406.49,-122.24 410.27,-132.14 415.62,-127.62"/>
</g>
<!-- 2908 -->
<g id="node15" class="node">
<title>2908</title>
<path fill="#f7f0c4" stroke="black" d="M570.5,-122C570.5,-122 475.5,-122 475.5,-122 469.5,-122 463.5,-116 463.5,-110 463.5,-110 463.5,-84 463.5,-84 463.5,-78 469.5,-72 475.5,-72 475.5,-72 570.5,-72 570.5,-72 576.5,-72 582.5,-78 582.5,-84 582.5,-84 582.5,-110 582.5,-110 582.5,-116 576.5,-122 570.5,-122"/>
<text text-anchor="start" x="496.5" y="-107.8" font-family="arial" font-size="14.00">X</text>
<text text-anchor="start" x="506.5" y="-107.8" font-family="arial" baseline-shift="sub" font-size="14.00">7</text>
<text text-anchor="start" x="513.5" y="-107.8" font-family="arial" font-size="14.00"> ≤ 0.5</text>
<text text-anchor="start" x="485.5" y="-93.8" font-family="arial" font-size="14.00">gini = 0.697</text>
<text text-anchor="start" x="471.5" y="-79.8" font-family="arial" font-size="14.00">samples = 3.7%</text>
</g>
<!-- 2366&#45;&gt;2908 -->
<g id="edge14" class="edge">
<title>2366&#45;&gt;2908</title>
<path fill="none" stroke="black" d="M476.09,-157.7C482.79,-149.17 490.44,-139.45 497.58,-130.36"/>
<polygon fill="black" stroke="black" points="500.53,-132.27 503.95,-122.24 495.02,-127.94 500.53,-132.27"/>
</g>
<!-- 2368 -->
<g id="node13" class="node">
<title>2368</title>
<path fill="#c0c0c0" stroke="black" d="M356,-36C356,-36 326,-36 326,-36 320,-36 314,-30 314,-24 314,-24 314,-12 314,-12 314,-6 320,0 326,0 326,0 356,0 356,0 362,0 368,-6 368,-12 368,-12 368,-24 368,-24 368,-30 362,-36 356,-36"/>
<text text-anchor="middle" x="341" y="-14.3" font-family="arial" font-size="14.00">(...)</text>
</g>
<!-- 2367&#45;&gt;2368 -->
<g id="edge12" class="edge">
<title>2367&#45;&gt;2368</title>
<path fill="none" stroke="black" d="M371.76,-71.64C366.85,-63.22 361.32,-53.77 356.32,-45.21"/>
<polygon fill="black" stroke="black" points="359.22,-43.24 351.15,-36.38 353.18,-46.78 359.22,-43.24"/>
</g>
<!-- 2751 -->
<g id="node14" class="node">
<title>2751</title>
<path fill="#c0c0c0" stroke="black" d="M428,-36C428,-36 398,-36 398,-36 392,-36 386,-30 386,-24 386,-24 386,-12 386,-12 386,-6 392,0 398,0 398,0 428,0 428,0 434,0 440,-6 440,-12 440,-12 440,-24 440,-24 440,-30 434,-36 428,-36"/>
<text text-anchor="middle" x="413" y="-14.3" font-family="arial" font-size="14.00">(...)</text>
</g>
<!-- 2367&#45;&gt;2751 -->
<g id="edge13" class="edge">
<title>2367&#45;&gt;2751</title>
<path fill="none" stroke="black" d="M394.54,-71.64C397.4,-63.49 400.6,-54.37 403.52,-46.03"/>
<polygon fill="black" stroke="black" points="406.9,-46.97 406.91,-36.38 400.3,-44.65 406.9,-46.97"/>
</g>
<!-- 2909 -->
<g id="node16" class="node">
<title>2909</title>
<path fill="#c0c0c0" stroke="black" d="M504,-36C504,-36 474,-36 474,-36 468,-36 462,-30 462,-24 462,-24 462,-12 462,-12 462,-6 468,0 474,0 474,0 504,0 504,0 510,0 516,-6 516,-12 516,-12 516,-24 516,-24 516,-30 510,-36 504,-36"/>
<text text-anchor="middle" x="489" y="-14.3" font-family="arial" font-size="14.00">(...)</text>
</g>
<!-- 2908&#45;&gt;2909 -->
<g id="edge15" class="edge">
<title>2908&#45;&gt;2909</title>
<path fill="none" stroke="black" d="M512.24,-71.64C508.61,-63.4 504.53,-54.17 500.82,-45.76"/>
<polygon fill="black" stroke="black" points="503.91,-44.11 496.67,-36.38 497.51,-46.94 503.91,-44.11"/>
</g>
<!-- 2942 -->
<g id="node17" class="node">
<title>2942</title>
<path fill="#c0c0c0" stroke="black" d="M576,-36C576,-36 546,-36 546,-36 540,-36 534,-30 534,-24 534,-24 534,-12 534,-12 534,-6 540,0 546,0 546,0 576,0 576,0 582,0 588,-6 588,-12 588,-12 588,-24 588,-24 588,-30 582,-36 576,-36"/>
<text text-anchor="middle" x="561" y="-14.3" font-family="arial" font-size="14.00">(...)</text>
</g>
<!-- 2908&#45;&gt;2942 -->
<g id="edge16" class="edge">
<title>2908&#45;&gt;2942</title>
<path fill="none" stroke="black" d="M535.02,-71.64C539.13,-63.31 543.74,-53.97 547.93,-45.48"/>
<polygon fill="black" stroke="black" points="551.14,-46.89 552.42,-36.38 544.86,-43.79 551.14,-46.89"/>
</g>
<!-- 3060 -->
<g id="node19" class="node">
<title>3060</title>
<path fill="#e2f6ba" stroke="black" d="M861,-208C861,-208 757,-208 757,-208 751,-208 745,-202 745,-196 745,-196 745,-170 745,-170 745,-164 751,-158 757,-158 757,-158 861,-158 861,-158 867,-158 873,-164 873,-170 873,-170 873,-196 873,-196 873,-202 867,-208 861,-208"/>
<text text-anchor="start" x="782.5" y="-193.8" font-family="arial" font-size="14.00">X</text>
<text text-anchor="start" x="792.5" y="-193.8" font-family="arial" baseline-shift="sub" font-size="14.00">8</text>
<text text-anchor="start" x="799.5" y="-193.8" font-family="arial" font-size="14.00"> ≤ 0.5</text>
<text text-anchor="start" x="771.5" y="-179.8" font-family="arial" font-size="14.00">gini = 0.738</text>
<text text-anchor="start" x="753" y="-165.8" font-family="arial" font-size="14.00">samples = 22.2%</text>
</g>
<!-- 3059&#45;&gt;3060 -->
<g id="edge18" class="edge">
<title>3059&#45;&gt;3060</title>
<path fill="none" stroke="black" d="M860.89,-243.7C853.32,-235 844.67,-225.05 836.64,-215.8"/>
<polygon fill="black" stroke="black" points="839.27,-213.49 830.07,-208.24 833.98,-218.09 839.27,-213.49"/>
</g>
<!-- 4971 -->
<g id="node26" class="node">
<title>4971</title>
<path fill="#f3fbe2" stroke="black" d="M1007,-208C1007,-208 903,-208 903,-208 897,-208 891,-202 891,-196 891,-196 891,-170 891,-170 891,-164 897,-158 903,-158 903,-158 1007,-158 1007,-158 1013,-158 1019,-164 1019,-170 1019,-170 1019,-196 1019,-196 1019,-202 1013,-208 1007,-208"/>
<text text-anchor="start" x="928.5" y="-193.8" font-family="arial" font-size="14.00">X</text>
<text text-anchor="start" x="938.5" y="-193.8" font-family="arial" baseline-shift="sub" font-size="14.00">6</text>
<text text-anchor="start" x="945.5" y="-193.8" font-family="arial" font-size="14.00"> ≤ 1.5</text>
<text text-anchor="start" x="917.5" y="-179.8" font-family="arial" font-size="14.00">gini = 0.811</text>
<text text-anchor="start" x="899" y="-165.8" font-family="arial" font-size="14.00">samples = 11.1%</text>
</g>
<!-- 3059&#45;&gt;4971 -->
<g id="edge25" class="edge">
<title>3059&#45;&gt;4971</title>
<path fill="none" stroke="black" d="M903.11,-243.7C910.68,-235 919.33,-225.05 927.36,-215.8"/>
<polygon fill="black" stroke="black" points="930.02,-218.09 933.93,-208.24 924.73,-213.49 930.02,-218.09"/>
</g>
<!-- 3061 -->
<g id="node20" class="node">
<title>3061</title>
<path fill="#f2fbe0" stroke="black" d="M717,-122C717,-122 613,-122 613,-122 607,-122 601,-116 601,-110 601,-110 601,-84 601,-84 601,-78 607,-72 613,-72 613,-72 717,-72 717,-72 723,-72 729,-78 729,-84 729,-84 729,-110 729,-110 729,-116 723,-122 717,-122"/>
<text text-anchor="start" x="638.5" y="-107.8" font-family="arial" font-size="14.00">X</text>
<text text-anchor="start" x="648.5" y="-107.8" font-family="arial" baseline-shift="sub" font-size="14.00">0</text>
<text text-anchor="start" x="655.5" y="-107.8" font-family="arial" font-size="14.00"> ≤ 1.5</text>
<text text-anchor="start" x="627.5" y="-93.8" font-family="arial" font-size="14.00">gini = 0.799</text>
<text text-anchor="start" x="609" y="-79.8" font-family="arial" font-size="14.00">samples = 11.1%</text>
</g>
<!-- 3060&#45;&gt;3061 -->
<g id="edge19" class="edge">
<title>3060&#45;&gt;3061</title>
<path fill="none" stroke="black" d="M767.74,-157.93C751.32,-148.35 732.27,-137.24 715.07,-127.21"/>
<polygon fill="black" stroke="black" points="716.67,-124.09 706.27,-122.07 713.14,-130.14 716.67,-124.09"/>
</g>
<!-- 4216 -->
<g id="node23" class="node">
<title>4216</title>
<path fill="#d3f197" stroke="black" d="M863,-122C863,-122 759,-122 759,-122 753,-122 747,-116 747,-110 747,-110 747,-84 747,-84 747,-78 753,-72 759,-72 759,-72 863,-72 863,-72 869,-72 875,-78 875,-84 875,-84 875,-110 875,-110 875,-116 869,-122 863,-122"/>
<text text-anchor="start" x="784.5" y="-107.8" font-family="arial" font-size="14.00">X</text>
<text text-anchor="start" x="794.5" y="-107.8" font-family="arial" baseline-shift="sub" font-size="14.00">0</text>
<text text-anchor="start" x="801.5" y="-107.8" font-family="arial" font-size="14.00"> ≤ 0.5</text>
<text text-anchor="start" x="773.5" y="-93.8" font-family="arial" font-size="14.00">gini = 0.618</text>
<text text-anchor="start" x="755" y="-79.8" font-family="arial" font-size="14.00">samples = 11.1%</text>
</g>
<!-- 3060&#45;&gt;4216 -->
<g id="edge22" class="edge">
<title>3060&#45;&gt;4216</title>
<path fill="none" stroke="black" d="M809.58,-157.7C809.77,-149.78 809.98,-140.83 810.18,-132.31"/>
<polygon fill="black" stroke="black" points="813.68,-132.32 810.42,-122.24 806.69,-132.16 813.68,-132.32"/>
</g>
<!-- 3062 -->
<g id="node21" class="node">
<title>3062</title>
<path fill="#c0c0c0" stroke="black" d="M650,-36C650,-36 620,-36 620,-36 614,-36 608,-30 608,-24 608,-24 608,-12 608,-12 608,-6 614,0 620,0 620,0 650,0 650,0 656,0 662,-6 662,-12 662,-12 662,-24 662,-24 662,-30 656,-36 650,-36"/>
<text text-anchor="middle" x="635" y="-14.3" font-family="arial" font-size="14.00">(...)</text>
</g>
<!-- 3061&#45;&gt;3062 -->
<g id="edge20" class="edge">
<title>3061&#45;&gt;3062</title>
<path fill="none" stroke="black" d="M655.51,-71.64C652.3,-63.4 648.7,-54.17 645.43,-45.76"/>
<polygon fill="black" stroke="black" points="648.66,-44.42 641.77,-36.38 642.14,-46.96 648.66,-44.42"/>
</g>
<!-- 3893 -->
<g id="node22" class="node">
<title>3893</title>
<path fill="#c0c0c0" stroke="black" d="M722,-36C722,-36 692,-36 692,-36 686,-36 680,-30 680,-24 680,-24 680,-12 680,-12 680,-6 686,0 692,0 692,0 722,0 722,0 728,0 734,-6 734,-12 734,-12 734,-24 734,-24 734,-30 728,-36 722,-36"/>
<text text-anchor="middle" x="707" y="-14.3" font-family="arial" font-size="14.00">(...)</text>
</g>
<!-- 3061&#45;&gt;3893 -->
<g id="edge21" class="edge">
<title>3061&#45;&gt;3893</title>
<path fill="none" stroke="black" d="M678.29,-71.64C682.88,-63.22 688.04,-53.77 692.7,-45.21"/>
<polygon fill="black" stroke="black" points="695.81,-46.83 697.52,-36.38 689.66,-43.48 695.81,-46.83"/>
</g>
<!-- 4217 -->
<g id="node24" class="node">
<title>4217</title>
<path fill="#c0c0c0" stroke="black" d="M795,-36C795,-36 765,-36 765,-36 759,-36 753,-30 753,-24 753,-24 753,-12 753,-12 753,-6 759,0 765,0 765,0 795,0 795,0 801,0 807,-6 807,-12 807,-12 807,-24 807,-24 807,-30 801,-36 795,-36"/>
<text text-anchor="middle" x="780" y="-14.3" font-family="arial" font-size="14.00">(...)</text>
</g>
<!-- 4216&#45;&gt;4217 -->
<g id="edge23" class="edge">
<title>4216&#45;&gt;4217</title>
<path fill="none" stroke="black" d="M801.19,-71.64C797.88,-63.4 794.16,-54.17 790.77,-45.76"/>
<polygon fill="black" stroke="black" points="793.98,-44.35 787,-36.38 787.48,-46.96 793.98,-44.35"/>
</g>
<!-- 4568 -->
<g id="node25" class="node">
<title>4568</title>
<path fill="#c0c0c0" stroke="black" d="M867,-36C867,-36 837,-36 837,-36 831,-36 825,-30 825,-24 825,-24 825,-12 825,-12 825,-6 831,0 837,0 837,0 867,0 867,0 873,0 879,-6 879,-12 879,-12 879,-24 879,-24 879,-30 873,-36 867,-36"/>
<text text-anchor="middle" x="852" y="-14.3" font-family="arial" font-size="14.00">(...)</text>
</g>
<!-- 4216&#45;&gt;4568 -->
<g id="edge24" class="edge">
<title>4216&#45;&gt;4568</title>
<path fill="none" stroke="black" d="M823.97,-71.64C828.45,-63.22 833.49,-53.77 838.04,-45.21"/>
<polygon fill="black" stroke="black" points="841.14,-46.85 842.75,-36.38 834.96,-43.56 841.14,-46.85"/>
</g>
<!-- 4972 -->
<g id="node27" class="node">
<title>4972</title>
<path fill="#ebf9cf" stroke="black" d="M1000.5,-122C1000.5,-122 905.5,-122 905.5,-122 899.5,-122 893.5,-116 893.5,-110 893.5,-110 893.5,-84 893.5,-84 893.5,-78 899.5,-72 905.5,-72 905.5,-72 1000.5,-72 1000.5,-72 1006.5,-72 1012.5,-78 1012.5,-84 1012.5,-84 1012.5,-110 1012.5,-110 1012.5,-116 1006.5,-122 1000.5,-122"/>
<text text-anchor="start" x="926.5" y="-107.8" font-family="arial" font-size="14.00">X</text>
<text text-anchor="start" x="936.5" y="-107.8" font-family="arial" baseline-shift="sub" font-size="14.00">2</text>
<text text-anchor="start" x="943.5" y="-107.8" font-family="arial" font-size="14.00"> ≤ 1.5</text>
<text text-anchor="start" x="915.5" y="-93.8" font-family="arial" font-size="14.00">gini = 0.786</text>
<text text-anchor="start" x="901.5" y="-79.8" font-family="arial" font-size="14.00">samples = 7.4%</text>
</g>
<!-- 4971&#45;&gt;4972 -->
<g id="edge26" class="edge">
<title>4971&#45;&gt;4972</title>
<path fill="none" stroke="black" d="M954.42,-157.7C954.23,-149.78 954.02,-140.83 953.82,-132.31"/>
<polygon fill="black" stroke="black" points="957.31,-132.16 953.58,-122.24 950.32,-132.32 957.31,-132.16"/>
</g>
<!-- 5573 -->
<g id="node30" class="node">
<title>5573</title>
<path fill="#f9f4d1" stroke="black" d="M1137.5,-122C1137.5,-122 1042.5,-122 1042.5,-122 1036.5,-122 1030.5,-116 1030.5,-110 1030.5,-110 1030.5,-84 1030.5,-84 1030.5,-78 1036.5,-72 1042.5,-72 1042.5,-72 1137.5,-72 1137.5,-72 1143.5,-72 1149.5,-78 1149.5,-84 1149.5,-84 1149.5,-110 1149.5,-110 1149.5,-116 1143.5,-122 1137.5,-122"/>
<text text-anchor="start" x="1063.5" y="-107.8" font-family="arial" font-size="14.00">X</text>
<text text-anchor="start" x="1073.5" y="-107.8" font-family="arial" baseline-shift="sub" font-size="14.00">7</text>
<text text-anchor="start" x="1080.5" y="-107.8" font-family="arial" font-size="14.00"> ≤ 1.5</text>
<text text-anchor="start" x="1056.5" y="-93.8" font-family="arial" font-size="14.00">gini = 0.73</text>
<text text-anchor="start" x="1038.5" y="-79.8" font-family="arial" font-size="14.00">samples = 3.7%</text>
</g>
<!-- 4971&#45;&gt;5573 -->
<g id="edge29" class="edge">
<title>4971&#45;&gt;5573</title>
<path fill="none" stroke="black" d="M993.69,-157.93C1008.94,-148.44 1026.61,-137.45 1042.61,-127.49"/>
<polygon fill="black" stroke="black" points="1044.67,-130.33 1051.31,-122.07 1040.97,-124.39 1044.67,-130.33"/>
</g>
<!-- 4973 -->
<g id="node28" class="node">
<title>4973</title>
<path fill="#c0c0c0" stroke="black" d="M940,-36C940,-36 910,-36 910,-36 904,-36 898,-30 898,-24 898,-24 898,-12 898,-12 898,-6 904,0 910,0 910,0 940,0 940,0 946,0 952,-6 952,-12 952,-12 952,-24 952,-24 952,-30 946,-36 940,-36"/>
<text text-anchor="middle" x="925" y="-14.3" font-family="arial" font-size="14.00">(...)</text>
</g>
<!-- 4972&#45;&gt;4973 -->
<g id="edge27" class="edge">
<title>4972&#45;&gt;4973</title>
<path fill="none" stroke="black" d="M944.14,-71.64C941.18,-63.49 937.86,-54.37 934.83,-46.03"/>
<polygon fill="black" stroke="black" points="938.03,-44.58 931.32,-36.38 931.45,-46.97 938.03,-44.58"/>
</g>
<!-- 5364 -->
<g id="node29" class="node">
<title>5364</title>
<path fill="#c0c0c0" stroke="black" d="M1012,-36C1012,-36 982,-36 982,-36 976,-36 970,-30 970,-24 970,-24 970,-12 970,-12 970,-6 976,0 982,0 982,0 1012,0 1012,0 1018,0 1024,-6 1024,-12 1024,-12 1024,-24 1024,-24 1024,-30 1018,-36 1012,-36"/>
<text text-anchor="middle" x="997" y="-14.3" font-family="arial" font-size="14.00">(...)</text>
</g>
<!-- 4972&#45;&gt;5364 -->
<g id="edge28" class="edge">
<title>4972&#45;&gt;5364</title>
<path fill="none" stroke="black" d="M966.92,-71.64C971.73,-63.22 977.13,-53.77 982.02,-45.21"/>
<polygon fill="black" stroke="black" points="985.15,-46.8 987.07,-36.38 979.07,-43.32 985.15,-46.8"/>
</g>
<!-- 5574 -->
<g id="node31" class="node">
<title>5574</title>
<path fill="#c0c0c0" stroke="black" d="M1084,-36C1084,-36 1054,-36 1054,-36 1048,-36 1042,-30 1042,-24 1042,-24 1042,-12 1042,-12 1042,-6 1048,0 1054,0 1054,0 1084,0 1084,0 1090,0 1096,-6 1096,-12 1096,-12 1096,-24 1096,-24 1096,-30 1090,-36 1084,-36"/>
<text text-anchor="middle" x="1069" y="-14.3" font-family="arial" font-size="14.00">(...)</text>
</g>
<!-- 5573&#45;&gt;5574 -->
<g id="edge30" class="edge">
<title>5573&#45;&gt;5574</title>
<path fill="none" stroke="black" d="M1083.36,-71.64C1081.13,-63.49 1078.65,-54.37 1076.37,-46.03"/>
<polygon fill="black" stroke="black" points="1079.75,-45.1 1073.74,-36.38 1072.99,-46.94 1079.75,-45.1"/>
</g>
<!-- 5779 -->
<g id="node32" class="node">
<title>5779</title>
<path fill="#c0c0c0" stroke="black" d="M1156,-36C1156,-36 1126,-36 1126,-36 1120,-36 1114,-30 1114,-24 1114,-24 1114,-12 1114,-12 1114,-6 1120,0 1126,0 1126,0 1156,0 1156,0 1162,0 1168,-6 1168,-12 1168,-12 1168,-24 1168,-24 1168,-30 1162,-36 1156,-36"/>
<text text-anchor="middle" x="1141" y="-14.3" font-family="arial" font-size="14.00">(...)</text>
</g>
<!-- 5573&#45;&gt;5779 -->
<g id="edge31" class="edge">
<title>5573&#45;&gt;5779</title>
<path fill="none" stroke="black" d="M1106.14,-71.64C1111.77,-63.13 1118.11,-53.56 1123.82,-44.94"/>
<polygon fill="black" stroke="black" points="1126.89,-46.65 1129.49,-36.38 1121.05,-42.78 1126.89,-46.65"/>
</g>
<!-- 5837 -->
<g id="node34" class="node">
<title>5837</title>
<path fill="#fbf7dd" stroke="black" d="M1484,-294C1484,-294 1380,-294 1380,-294 1374,-294 1368,-288 1368,-282 1368,-282 1368,-256 1368,-256 1368,-250 1374,-244 1380,-244 1380,-244 1484,-244 1484,-244 1490,-244 1496,-250 1496,-256 1496,-256 1496,-282 1496,-282 1496,-288 1490,-294 1484,-294"/>
<text text-anchor="start" x="1405.5" y="-279.8" font-family="arial" font-size="14.00">X</text>
<text text-anchor="start" x="1415.5" y="-279.8" font-family="arial" baseline-shift="sub" font-size="14.00">2</text>
<text text-anchor="start" x="1422.5" y="-279.8" font-family="arial" font-size="14.00"> ≤ 1.5</text>
<text text-anchor="start" x="1394.5" y="-265.8" font-family="arial" font-size="14.00">gini = 0.848</text>
<text text-anchor="start" x="1376" y="-251.8" font-family="arial" font-size="14.00">samples = 22.2%</text>
</g>
<!-- 5836&#45;&gt;5837 -->
<g id="edge33" class="edge">
<title>5836&#45;&gt;5837</title>
<path fill="none" stroke="black" d="M1432,-329.7C1432,-321.78 1432,-312.83 1432,-304.31"/>
<polygon fill="black" stroke="black" points="1435.5,-304.24 1432,-294.24 1428.5,-304.24 1435.5,-304.24"/>
</g>
<!-- 7150 -->
<g id="node47" class="node">
<title>7150</title>
<path fill="#f3e8a3" stroke="black" d="M1827,-294C1827,-294 1723,-294 1723,-294 1717,-294 1711,-288 1711,-282 1711,-282 1711,-256 1711,-256 1711,-250 1717,-244 1723,-244 1723,-244 1827,-244 1827,-244 1833,-244 1839,-250 1839,-256 1839,-256 1839,-282 1839,-282 1839,-288 1833,-294 1827,-294"/>
<text text-anchor="start" x="1748.5" y="-279.8" font-family="arial" font-size="14.00">X</text>
<text text-anchor="start" x="1758.5" y="-279.8" font-family="arial" baseline-shift="sub" font-size="14.00">8</text>
<text text-anchor="start" x="1765.5" y="-279.8" font-family="arial" font-size="14.00"> ≤ 1.5</text>
<text text-anchor="start" x="1737.5" y="-265.8" font-family="arial" font-size="14.00">gini = 0.619</text>
<text text-anchor="start" x="1719" y="-251.8" font-family="arial" font-size="14.00">samples = 11.1%</text>
</g>
<!-- 5836&#45;&gt;7150 -->
<g id="edge46" class="edge">
<title>5836&#45;&gt;7150</title>
<path fill="none" stroke="black" d="M1496.11,-338.3C1554.25,-324.06 1639.92,-303.08 1700.96,-288.13"/>
<polygon fill="black" stroke="black" points="1702.03,-291.47 1710.91,-285.7 1700.37,-284.67 1702.03,-291.47"/>
</g>
<!-- 5838 -->
<g id="node35" class="node">
<title>5838</title>
<path fill="#fffffe" stroke="black" d="M1413,-208C1413,-208 1309,-208 1309,-208 1303,-208 1297,-202 1297,-196 1297,-196 1297,-170 1297,-170 1297,-164 1303,-158 1309,-158 1309,-158 1413,-158 1413,-158 1419,-158 1425,-164 1425,-170 1425,-170 1425,-196 1425,-196 1425,-202 1419,-208 1413,-208"/>
<text text-anchor="start" x="1334.5" y="-193.8" font-family="arial" font-size="14.00">X</text>
<text text-anchor="start" x="1344.5" y="-193.8" font-family="arial" baseline-shift="sub" font-size="14.00">7</text>
<text text-anchor="start" x="1351.5" y="-193.8" font-family="arial" font-size="14.00"> ≤ 1.5</text>
<text text-anchor="start" x="1323.5" y="-179.8" font-family="arial" font-size="14.00">gini = 0.875</text>
<text text-anchor="start" x="1305" y="-165.8" font-family="arial" font-size="14.00">samples = 14.8%</text>
</g>
<!-- 5837&#45;&gt;5838 -->
<g id="edge34" class="edge">
<title>5837&#45;&gt;5838</title>
<path fill="none" stroke="black" d="M1411.46,-243.7C1404.18,-235.08 1395.86,-225.25 1388.11,-216.08"/>
<polygon fill="black" stroke="black" points="1390.62,-213.62 1381.49,-208.24 1385.27,-218.14 1390.62,-213.62"/>
</g>
<!-- 6911 -->
<g id="node42" class="node">
<title>6911</title>
<path fill="#f5ecb3" stroke="black" d="M1550.5,-208C1550.5,-208 1455.5,-208 1455.5,-208 1449.5,-208 1443.5,-202 1443.5,-196 1443.5,-196 1443.5,-170 1443.5,-170 1443.5,-164 1449.5,-158 1455.5,-158 1455.5,-158 1550.5,-158 1550.5,-158 1556.5,-158 1562.5,-164 1562.5,-170 1562.5,-170 1562.5,-196 1562.5,-196 1562.5,-202 1556.5,-208 1550.5,-208"/>
<text text-anchor="start" x="1476.5" y="-193.8" font-family="arial" font-size="14.00">X</text>
<text text-anchor="start" x="1486.5" y="-193.8" font-family="arial" baseline-shift="sub" font-size="14.00">6</text>
<text text-anchor="start" x="1493.5" y="-193.8" font-family="arial" font-size="14.00"> ≤ 1.5</text>
<text text-anchor="start" x="1465.5" y="-179.8" font-family="arial" font-size="14.00">gini = 0.696</text>
<text text-anchor="start" x="1451.5" y="-165.8" font-family="arial" font-size="14.00">samples = 7.4%</text>
</g>
<!-- 5837&#45;&gt;6911 -->
<g id="edge41" class="edge">
<title>5837&#45;&gt;6911</title>
<path fill="none" stroke="black" d="M1452.54,-243.7C1459.82,-235.08 1468.14,-225.25 1475.89,-216.08"/>
<polygon fill="black" stroke="black" points="1478.73,-218.14 1482.51,-208.24 1473.38,-213.62 1478.73,-218.14"/>
</g>
<!-- 5839 -->
<g id="node36" class="node">
<title>5839</title>
<path fill="#fafef4" stroke="black" d="M1274.5,-122C1274.5,-122 1179.5,-122 1179.5,-122 1173.5,-122 1167.5,-116 1167.5,-110 1167.5,-110 1167.5,-84 1167.5,-84 1167.5,-78 1173.5,-72 1179.5,-72 1179.5,-72 1274.5,-72 1274.5,-72 1280.5,-72 1286.5,-78 1286.5,-84 1286.5,-84 1286.5,-110 1286.5,-110 1286.5,-116 1280.5,-122 1274.5,-122"/>
<text text-anchor="start" x="1200.5" y="-107.8" font-family="arial" font-size="14.00">X</text>
<text text-anchor="start" x="1210.5" y="-107.8" font-family="arial" baseline-shift="sub" font-size="14.00">3</text>
<text text-anchor="start" x="1217.5" y="-107.8" font-family="arial" font-size="14.00"> ≤ 1.5</text>
<text text-anchor="start" x="1189.5" y="-93.8" font-family="arial" font-size="14.00">gini = 0.877</text>
<text text-anchor="start" x="1175.5" y="-79.8" font-family="arial" font-size="14.00">samples = 9.9%</text>
</g>
<!-- 5838&#45;&gt;5839 -->
<g id="edge35" class="edge">
<title>5838&#45;&gt;5839</title>
<path fill="none" stroke="black" d="M1322.6,-157.93C1307.46,-148.44 1289.93,-137.45 1274.04,-127.49"/>
<polygon fill="black" stroke="black" points="1275.74,-124.42 1265.4,-122.07 1272.02,-130.35 1275.74,-124.42"/>
</g>
<!-- 6608 -->
<g id="node39" class="node">
<title>6608</title>
<path fill="#f7f0c4" stroke="black" d="M1411.5,-122C1411.5,-122 1316.5,-122 1316.5,-122 1310.5,-122 1304.5,-116 1304.5,-110 1304.5,-110 1304.5,-84 1304.5,-84 1304.5,-78 1310.5,-72 1316.5,-72 1316.5,-72 1411.5,-72 1411.5,-72 1417.5,-72 1423.5,-78 1423.5,-84 1423.5,-84 1423.5,-110 1423.5,-110 1423.5,-116 1417.5,-122 1411.5,-122"/>
<text text-anchor="start" x="1337.5" y="-107.8" font-family="arial" font-size="14.00">X</text>
<text text-anchor="start" x="1347.5" y="-107.8" font-family="arial" baseline-shift="sub" font-size="14.00">1</text>
<text text-anchor="start" x="1354.5" y="-107.8" font-family="arial" font-size="14.00"> ≤ 1.5</text>
<text text-anchor="start" x="1326.5" y="-93.8" font-family="arial" font-size="14.00">gini = 0.769</text>
<text text-anchor="start" x="1312.5" y="-79.8" font-family="arial" font-size="14.00">samples = 4.9%</text>
</g>
<!-- 5838&#45;&gt;6608 -->
<g id="edge38" class="edge">
<title>5838&#45;&gt;6608</title>
<path fill="none" stroke="black" d="M1361.87,-157.7C1362.15,-149.78 1362.47,-140.83 1362.77,-132.31"/>
<polygon fill="black" stroke="black" points="1366.27,-132.36 1363.13,-122.24 1359.28,-132.11 1366.27,-132.36"/>
</g>
<!-- 5840 -->
<g id="node37" class="node">
<title>5840</title>
<path fill="#c0c0c0" stroke="black" d="M1228,-36C1228,-36 1198,-36 1198,-36 1192,-36 1186,-30 1186,-24 1186,-24 1186,-12 1186,-12 1186,-6 1192,0 1198,0 1198,0 1228,0 1228,0 1234,0 1240,-6 1240,-12 1240,-12 1240,-24 1240,-24 1240,-30 1234,-36 1228,-36"/>
<text text-anchor="middle" x="1213" y="-14.3" font-family="arial" font-size="14.00">(...)</text>
</g>
<!-- 5839&#45;&gt;5840 -->
<g id="edge36" class="edge">
<title>5839&#45;&gt;5840</title>
<path fill="none" stroke="black" d="M1222.57,-71.64C1221.11,-63.58 1219.47,-54.57 1217.97,-46.31"/>
<polygon fill="black" stroke="black" points="1221.39,-45.59 1216.16,-36.38 1214.5,-46.84 1221.39,-45.59"/>
</g>
<!-- 6381 -->
<g id="node38" class="node">
<title>6381</title>
<path fill="#c0c0c0" stroke="black" d="M1300,-36C1300,-36 1270,-36 1270,-36 1264,-36 1258,-30 1258,-24 1258,-24 1258,-12 1258,-12 1258,-6 1264,0 1270,0 1270,0 1300,0 1300,0 1306,0 1312,-6 1312,-12 1312,-12 1312,-24 1312,-24 1312,-30 1306,-36 1300,-36"/>
<text text-anchor="middle" x="1285" y="-14.3" font-family="arial" font-size="14.00">(...)</text>
</g>
<!-- 5839&#45;&gt;6381 -->
<g id="edge37" class="edge">
<title>5839&#45;&gt;6381</title>
<path fill="none" stroke="black" d="M1245.35,-71.64C1251.89,-62.96 1259.27,-53.16 1265.87,-44.4"/>
<polygon fill="black" stroke="black" points="1268.69,-46.47 1271.91,-36.38 1263.1,-42.26 1268.69,-46.47"/>
</g>
<!-- 6609 -->
<g id="node40" class="node">
<title>6609</title>
<path fill="#c0c0c0" stroke="black" d="M1372,-36C1372,-36 1342,-36 1342,-36 1336,-36 1330,-30 1330,-24 1330,-24 1330,-12 1330,-12 1330,-6 1336,0 1342,0 1342,0 1372,0 1372,0 1378,0 1384,-6 1384,-12 1384,-12 1384,-24 1384,-24 1384,-30 1378,-36 1372,-36"/>
<text text-anchor="middle" x="1357" y="-14.3" font-family="arial" font-size="14.00">(...)</text>
</g>
<!-- 6608&#45;&gt;6609 -->
<g id="edge39" class="edge">
<title>6608&#45;&gt;6609</title>
<path fill="none" stroke="black" d="M1361.79,-71.64C1361.06,-63.67 1360.25,-54.77 1359.51,-46.58"/>
<polygon fill="black" stroke="black" points="1362.97,-46.02 1358.58,-36.38 1356,-46.65 1362.97,-46.02"/>
</g>
<!-- 6850 -->
<g id="node41" class="node">
<title>6850</title>
<path fill="#c0c0c0" stroke="black" d="M1444,-36C1444,-36 1414,-36 1414,-36 1408,-36 1402,-30 1402,-24 1402,-24 1402,-12 1402,-12 1402,-6 1408,0 1414,0 1414,0 1444,0 1444,0 1450,0 1456,-6 1456,-12 1456,-12 1456,-24 1456,-24 1456,-30 1450,-36 1444,-36"/>
<text text-anchor="middle" x="1429" y="-14.3" font-family="arial" font-size="14.00">(...)</text>
</g>
<!-- 6608&#45;&gt;6850 -->
<g id="edge40" class="edge">
<title>6608&#45;&gt;6850</title>
<path fill="none" stroke="black" d="M1384.57,-71.64C1391.97,-62.87 1400.33,-52.96 1407.79,-44.12"/>
<polygon fill="black" stroke="black" points="1410.56,-46.28 1414.33,-36.38 1405.21,-41.76 1410.56,-46.28"/>
</g>
<!-- 6912 -->
<g id="node43" class="node">
<title>6912</title>
<path fill="#fef5fe" stroke="black" d="M1548.5,-122C1548.5,-122 1453.5,-122 1453.5,-122 1447.5,-122 1441.5,-116 1441.5,-110 1441.5,-110 1441.5,-84 1441.5,-84 1441.5,-78 1447.5,-72 1453.5,-72 1453.5,-72 1548.5,-72 1548.5,-72 1554.5,-72 1560.5,-78 1560.5,-84 1560.5,-84 1560.5,-110 1560.5,-110 1560.5,-116 1554.5,-122 1548.5,-122"/>
<text text-anchor="start" x="1474.5" y="-107.8" font-family="arial" font-size="14.00">X</text>
<text text-anchor="start" x="1484.5" y="-107.8" font-family="arial" baseline-shift="sub" font-size="14.00">6</text>
<text text-anchor="start" x="1491.5" y="-107.8" font-family="arial" font-size="14.00"> ≤ 0.5</text>
<text text-anchor="start" x="1463.5" y="-93.8" font-family="arial" font-size="14.00">gini = 0.817</text>
<text text-anchor="start" x="1449.5" y="-79.8" font-family="arial" font-size="14.00">samples = 4.9%</text>
</g>
<!-- 6911&#45;&gt;6912 -->
<g id="edge42" class="edge">
<title>6911&#45;&gt;6912</title>
<path fill="none" stroke="black" d="M1502.42,-157.7C1502.23,-149.78 1502.02,-140.83 1501.82,-132.31"/>
<polygon fill="black" stroke="black" points="1505.31,-132.16 1501.58,-122.24 1498.32,-132.32 1505.31,-132.16"/>
</g>
<!-- 7149 -->
<g id="node46" class="node">
<title>7149</title>
<path fill="#e5ce39" stroke="black" d="M1685.5,-116C1685.5,-116 1590.5,-116 1590.5,-116 1584.5,-116 1578.5,-110 1578.5,-104 1578.5,-104 1578.5,-90 1578.5,-90 1578.5,-84 1584.5,-78 1590.5,-78 1590.5,-78 1685.5,-78 1685.5,-78 1691.5,-78 1697.5,-84 1697.5,-90 1697.5,-90 1697.5,-104 1697.5,-104 1697.5,-110 1691.5,-116 1685.5,-116"/>
<text text-anchor="start" x="1609" y="-100.8" font-family="arial" font-size="14.00">gini = 0.0</text>
<text text-anchor="start" x="1586.5" y="-85.8" font-family="arial" font-size="14.00">samples = 2.5%</text>
</g>
<!-- 6911&#45;&gt;7149 -->
<g id="edge45" class="edge">
<title>6911&#45;&gt;7149</title>
<path fill="none" stroke="black" d="M1541.69,-157.93C1560.03,-146.51 1581.87,-132.92 1600.12,-121.57"/>
<polygon fill="black" stroke="black" points="1602.11,-124.45 1608.75,-116.2 1598.41,-118.51 1602.11,-124.45"/>
</g>
<!-- 6913 -->
<g id="node44" class="node">
<title>6913</title>
<path fill="#c0c0c0" stroke="black" d="M1516,-36C1516,-36 1486,-36 1486,-36 1480,-36 1474,-30 1474,-24 1474,-24 1474,-12 1474,-12 1474,-6 1480,0 1486,0 1486,0 1516,0 1516,0 1522,0 1528,-6 1528,-12 1528,-12 1528,-24 1528,-24 1528,-30 1522,-36 1516,-36"/>
<text text-anchor="middle" x="1501" y="-14.3" font-family="arial" font-size="14.00">(...)</text>
</g>
<!-- 6912&#45;&gt;6913 -->
<g id="edge43" class="edge">
<title>6912&#45;&gt;6913</title>
<path fill="none" stroke="black" d="M1501,-71.64C1501,-63.67 1501,-54.77 1501,-46.58"/>
<polygon fill="black" stroke="black" points="1504.5,-46.38 1501,-36.38 1497.5,-46.38 1504.5,-46.38"/>
</g>
<!-- 6938 -->
<g id="node45" class="node">
<title>6938</title>
<path fill="#c0c0c0" stroke="black" d="M1588,-36C1588,-36 1558,-36 1558,-36 1552,-36 1546,-30 1546,-24 1546,-24 1546,-12 1546,-12 1546,-6 1552,0 1558,0 1558,0 1588,0 1588,0 1594,0 1600,-6 1600,-12 1600,-12 1600,-24 1600,-24 1600,-30 1594,-36 1588,-36"/>
<text text-anchor="middle" x="1573" y="-14.3" font-family="arial" font-size="14.00">(...)</text>
</g>
<!-- 6912&#45;&gt;6938 -->
<g id="edge44" class="edge">
<title>6912&#45;&gt;6938</title>
<path fill="none" stroke="black" d="M1523.78,-71.64C1532.07,-62.78 1541.44,-52.76 1549.76,-43.85"/>
<polygon fill="black" stroke="black" points="1552.48,-46.07 1556.75,-36.38 1547.37,-41.29 1552.48,-46.07"/>
</g>
<!-- 7151 -->
<g id="node48" class="node">
<title>7151</title>
<path fill="#fdfbef" stroke="black" d="M1822.5,-208C1822.5,-208 1727.5,-208 1727.5,-208 1721.5,-208 1715.5,-202 1715.5,-196 1715.5,-196 1715.5,-170 1715.5,-170 1715.5,-164 1721.5,-158 1727.5,-158 1727.5,-158 1822.5,-158 1822.5,-158 1828.5,-158 1834.5,-164 1834.5,-170 1834.5,-170 1834.5,-196 1834.5,-196 1834.5,-202 1828.5,-208 1822.5,-208"/>
<text text-anchor="start" x="1748.5" y="-193.8" font-family="arial" font-size="14.00">X</text>
<text text-anchor="start" x="1758.5" y="-193.8" font-family="arial" baseline-shift="sub" font-size="14.00">8</text>
<text text-anchor="start" x="1765.5" y="-193.8" font-family="arial" font-size="14.00"> ≤ 0.5</text>
<text text-anchor="start" x="1737.5" y="-179.8" font-family="arial" font-size="14.00">gini = 0.755</text>
<text text-anchor="start" x="1723.5" y="-165.8" font-family="arial" font-size="14.00">samples = 7.4%</text>
</g>
<!-- 7150&#45;&gt;7151 -->
<g id="edge47" class="edge">
<title>7150&#45;&gt;7151</title>
<path fill="none" stroke="black" d="M1775,-243.7C1775,-235.78 1775,-226.83 1775,-218.31"/>
<polygon fill="black" stroke="black" points="1778.5,-218.24 1775,-208.24 1771.5,-218.24 1778.5,-218.24"/>
</g>
<!-- 7448 -->
<g id="node55" class="node">
<title>7448</title>
<path fill="#e5ce39" stroke="black" d="M1959.5,-202C1959.5,-202 1864.5,-202 1864.5,-202 1858.5,-202 1852.5,-196 1852.5,-190 1852.5,-190 1852.5,-176 1852.5,-176 1852.5,-170 1858.5,-164 1864.5,-164 1864.5,-164 1959.5,-164 1959.5,-164 1965.5,-164 1971.5,-170 1971.5,-176 1971.5,-176 1971.5,-190 1971.5,-190 1971.5,-196 1965.5,-202 1959.5,-202"/>
<text text-anchor="start" x="1883" y="-186.8" font-family="arial" font-size="14.00">gini = 0.0</text>
<text text-anchor="start" x="1860.5" y="-171.8" font-family="arial" font-size="14.00">samples = 3.7%</text>
</g>
<!-- 7150&#45;&gt;7448 -->
<g id="edge54" class="edge">
<title>7150&#45;&gt;7448</title>
<path fill="none" stroke="black" d="M1814.26,-243.93C1832.88,-232.51 1855.04,-218.92 1873.56,-207.57"/>
<polygon fill="black" stroke="black" points="1875.62,-210.41 1882.32,-202.2 1871.96,-204.44 1875.62,-210.41"/>
</g>
<!-- 7152 -->
<g id="node49" class="node">
<title>7152</title>
<path fill="#f5b5b8" stroke="black" d="M1822.5,-122C1822.5,-122 1727.5,-122 1727.5,-122 1721.5,-122 1715.5,-116 1715.5,-110 1715.5,-110 1715.5,-84 1715.5,-84 1715.5,-78 1721.5,-72 1727.5,-72 1727.5,-72 1822.5,-72 1822.5,-72 1828.5,-72 1834.5,-78 1834.5,-84 1834.5,-84 1834.5,-110 1834.5,-110 1834.5,-116 1828.5,-122 1822.5,-122"/>
<text text-anchor="start" x="1748.5" y="-107.8" font-family="arial" font-size="14.00">X</text>
<text text-anchor="start" x="1758.5" y="-107.8" font-family="arial" baseline-shift="sub" font-size="14.00">3</text>
<text text-anchor="start" x="1765.5" y="-107.8" font-family="arial" font-size="14.00"> ≤ 1.5</text>
<text text-anchor="start" x="1737.5" y="-93.8" font-family="arial" font-size="14.00">gini = 0.474</text>
<text text-anchor="start" x="1723.5" y="-79.8" font-family="arial" font-size="14.00">samples = 3.7%</text>
</g>
<!-- 7151&#45;&gt;7152 -->
<g id="edge48" class="edge">
<title>7151&#45;&gt;7152</title>
<path fill="none" stroke="black" d="M1775,-157.7C1775,-149.78 1775,-140.83 1775,-132.31"/>
<polygon fill="black" stroke="black" points="1778.5,-132.24 1775,-122.24 1771.5,-132.24 1778.5,-132.24"/>
</g>
<!-- 7175 -->
<g id="node52" class="node">
<title>7175</title>
<path fill="#fbf7df" stroke="black" d="M1959.5,-122C1959.5,-122 1864.5,-122 1864.5,-122 1858.5,-122 1852.5,-116 1852.5,-110 1852.5,-110 1852.5,-84 1852.5,-84 1852.5,-78 1858.5,-72 1864.5,-72 1864.5,-72 1959.5,-72 1959.5,-72 1965.5,-72 1971.5,-78 1971.5,-84 1971.5,-84 1971.5,-110 1971.5,-110 1971.5,-116 1965.5,-122 1959.5,-122"/>
<text text-anchor="start" x="1885.5" y="-107.8" font-family="arial" font-size="14.00">X</text>
<text text-anchor="start" x="1895.5" y="-107.8" font-family="arial" baseline-shift="sub" font-size="14.00">6</text>
<text text-anchor="start" x="1902.5" y="-107.8" font-family="arial" font-size="14.00"> ≤ 1.5</text>
<text text-anchor="start" x="1874.5" y="-93.8" font-family="arial" font-size="14.00">gini = 0.808</text>
<text text-anchor="start" x="1860.5" y="-79.8" font-family="arial" font-size="14.00">samples = 3.7%</text>
</g>
<!-- 7151&#45;&gt;7175 -->
<g id="edge51" class="edge">
<title>7151&#45;&gt;7175</title>
<path fill="none" stroke="black" d="M1814.26,-157.93C1829.74,-148.44 1847.67,-137.45 1863.91,-127.49"/>
<polygon fill="black" stroke="black" points="1866.04,-130.29 1872.74,-122.07 1862.38,-124.32 1866.04,-130.29"/>
</g>
<!-- 7153 -->
<g id="node50" class="node">
<title>7153</title>
<path fill="#c0c0c0" stroke="black" d="M1734,-36C1734,-36 1704,-36 1704,-36 1698,-36 1692,-30 1692,-24 1692,-24 1692,-12 1692,-12 1692,-6 1698,0 1704,0 1704,0 1734,0 1734,0 1740,0 1746,-6 1746,-12 1746,-12 1746,-24 1746,-24 1746,-30 1740,-36 1734,-36"/>
<text text-anchor="middle" x="1719" y="-14.3" font-family="arial" font-size="14.00">(...)</text>
</g>
<!-- 7152&#45;&gt;7153 -->
<g id="edge49" class="edge">
<title>7152&#45;&gt;7153</title>
<path fill="none" stroke="black" d="M1757.28,-71.64C1751.03,-63.05 1743.99,-53.36 1737.67,-44.67"/>
<polygon fill="black" stroke="black" points="1740.35,-42.41 1731.64,-36.38 1734.69,-46.52 1740.35,-42.41"/>
</g>
<!-- 7164 -->
<g id="node51" class="node">
<title>7164</title>
<path fill="#c0c0c0" stroke="black" d="M1806,-36C1806,-36 1776,-36 1776,-36 1770,-36 1764,-30 1764,-24 1764,-24 1764,-12 1764,-12 1764,-6 1770,0 1776,0 1776,0 1806,0 1806,0 1812,0 1818,-6 1818,-12 1818,-12 1818,-24 1818,-24 1818,-30 1812,-36 1806,-36"/>
<text text-anchor="middle" x="1791" y="-14.3" font-family="arial" font-size="14.00">(...)</text>
</g>
<!-- 7152&#45;&gt;7164 -->
<g id="edge50" class="edge">
<title>7152&#45;&gt;7164</title>
<path fill="none" stroke="black" d="M1780.06,-71.64C1781.74,-63.58 1783.61,-54.57 1785.33,-46.31"/>
<polygon fill="black" stroke="black" points="1788.78,-46.88 1787.39,-36.38 1781.93,-45.46 1788.78,-46.88"/>
</g>
<!-- 7176 -->
<g id="node53" class="node">
<title>7176</title>
<path fill="#c0c0c0" stroke="black" d="M1910,-36C1910,-36 1880,-36 1880,-36 1874,-36 1868,-30 1868,-24 1868,-24 1868,-12 1868,-12 1868,-6 1874,0 1880,0 1880,0 1910,0 1910,0 1916,0 1922,-6 1922,-12 1922,-12 1922,-24 1922,-24 1922,-30 1916,-36 1910,-36"/>
<text text-anchor="middle" x="1895" y="-14.3" font-family="arial" font-size="14.00">(...)</text>
</g>
<!-- 7175&#45;&gt;7176 -->
<g id="edge52" class="edge">
<title>7175&#45;&gt;7176</title>
<path fill="none" stroke="black" d="M1906.62,-71.64C1904.84,-63.58 1902.85,-54.57 1901.03,-46.31"/>
<polygon fill="black" stroke="black" points="1904.41,-45.39 1898.84,-36.38 1897.57,-46.9 1904.41,-45.39"/>
</g>
<!-- 7375 -->
<g id="node54" class="node">
<title>7375</title>
<path fill="#c0c0c0" stroke="black" d="M1982,-36C1982,-36 1952,-36 1952,-36 1946,-36 1940,-30 1940,-24 1940,-24 1940,-12 1940,-12 1940,-6 1946,0 1952,0 1952,0 1982,0 1982,0 1988,0 1994,-6 1994,-12 1994,-12 1994,-24 1994,-24 1994,-30 1988,-36 1982,-36"/>
<text text-anchor="middle" x="1967" y="-14.3" font-family="arial" font-size="14.00">(...)</text>
</g>
<!-- 7175&#45;&gt;7375 -->
<g id="edge53" class="edge">
<title>7175&#45;&gt;7375</title>
<path fill="none" stroke="black" d="M1929.4,-71.64C1935.54,-63.05 1942.46,-53.36 1948.67,-44.67"/>
<polygon fill="black" stroke="black" points="1951.62,-46.55 1954.59,-36.38 1945.93,-42.48 1951.62,-46.55"/>
</g>
</g>
</svg>
